<mxfile host="app.diagrams.net" modified="2023-11-06T02:45:32.119Z" agent="Mozilla/5.0 (Windows NT 10.0; Win64; x64) AppleWebKit/537.36 (KHTML, like Gecko) Chrome/118.0.0.0 Safari/537.36" etag="XwvGjMVuFaUbaJlGs3AL" version="22.0.8" type="github">
  <diagram id="prtHgNgQTEPvFCAcTncT" name="Page-1">
    <mxGraphModel dx="897" dy="1686" grid="1" gridSize="10" guides="1" tooltips="1" connect="1" arrows="1" fold="1" page="1" pageScale="1" pageWidth="827" pageHeight="1169" math="0" shadow="0">
      <root>
        <mxCell id="0" />
        <mxCell id="1" parent="0" />
        <mxCell id="dNxyNK7c78bLwvsdeMH5-19" value="invoke flow" style="swimlane;html=1;childLayout=stackLayout;resizeParent=1;resizeParentMax=0;horizontal=0;startSize=20;horizontalStack=0;" parent="1" vertex="1">
          <mxGeometry x="10" y="80" width="650" height="440" as="geometry" />
        </mxCell>
        <mxCell id="dNxyNK7c78bLwvsdeMH5-20" value="mainscheduler.py" style="swimlane;html=1;startSize=20;horizontal=0;" parent="dNxyNK7c78bLwvsdeMH5-19" vertex="1">
          <mxGeometry x="20" width="630" height="160" as="geometry" />
        </mxCell>
        <mxCell id="dNxyNK7c78bLwvsdeMH5-24" value="Scheduler(pipline,args).run" style="rounded=0;whiteSpace=wrap;html=1;fontFamily=Helvetica;fontSize=12;fontColor=#000000;align=center;" parent="dNxyNK7c78bLwvsdeMH5-20" vertex="1">
          <mxGeometry x="98" y="35" width="160" height="50" as="geometry" />
        </mxCell>
        <mxCell id="dNxyNK7c78bLwvsdeMH5-30" value="mulitRun(funList,args)" style="rounded=0;whiteSpace=wrap;html=1;fontFamily=Helvetica;fontSize=12;fontColor=#000000;align=center;" parent="dNxyNK7c78bLwvsdeMH5-20" vertex="1">
          <mxGeometry x="393" y="35" width="156" height="50" as="geometry" />
        </mxCell>
        <mxCell id="6_mQqwPu-ReOJ2Goo2wV-1" value="" style="edgeStyle=orthogonalEdgeStyle;rounded=0;orthogonalLoop=1;jettySize=auto;html=1;" edge="1" parent="dNxyNK7c78bLwvsdeMH5-20" source="dNxyNK7c78bLwvsdeMH5-24" target="dNxyNK7c78bLwvsdeMH5-30">
          <mxGeometry relative="1" as="geometry">
            <mxPoint x="300" y="59.5" as="sourcePoint" />
            <mxPoint x="330" y="59.5" as="targetPoint" />
          </mxGeometry>
        </mxCell>
        <mxCell id="6_mQqwPu-ReOJ2Goo2wV-2" value="invoke" style="edgeLabel;html=1;align=center;verticalAlign=middle;resizable=0;points=[];" vertex="1" connectable="0" parent="6_mQqwPu-ReOJ2Goo2wV-1">
          <mxGeometry x="0.0308" y="2" relative="1" as="geometry">
            <mxPoint y="1" as="offset" />
          </mxGeometry>
        </mxCell>
        <mxCell id="dNxyNK7c78bLwvsdeMH5-21" value="etltask.py" style="swimlane;html=1;startSize=20;horizontal=0;" parent="dNxyNK7c78bLwvsdeMH5-19" vertex="1">
          <mxGeometry x="20" y="160" width="630" height="120" as="geometry" />
        </mxCell>
        <mxCell id="6_mQqwPu-ReOJ2Goo2wV-3" value="worker(fName,results,args)" style="rounded=0;whiteSpace=wrap;html=1;fontFamily=Helvetica;fontSize=12;fontColor=#000000;align=center;" vertex="1" parent="dNxyNK7c78bLwvsdeMH5-21">
          <mxGeometry x="393" y="35" width="156" height="50" as="geometry" />
        </mxCell>
        <mxCell id="dNxyNK7c78bLwvsdeMH5-22" value="hrk_task_test99.py" style="swimlane;html=1;startSize=20;horizontal=0;" parent="dNxyNK7c78bLwvsdeMH5-19" vertex="1">
          <mxGeometry x="20" y="280" width="630" height="160" as="geometry" />
        </mxCell>
        <mxCell id="6_mQqwPu-ReOJ2Goo2wV-6" value="" style="rounded=0;whiteSpace=wrap;html=1;fontFamily=Helvetica;fontSize=12;fontColor=#000000;align=center;" vertex="1" parent="dNxyNK7c78bLwvsdeMH5-22">
          <mxGeometry x="40" y="30" width="570" height="90" as="geometry" />
        </mxCell>
        <mxCell id="6_mQqwPu-ReOJ2Goo2wV-7" value="BaseProcess(results,args)" style="text;html=1;strokeColor=none;fillColor=none;align=center;verticalAlign=middle;whiteSpace=wrap;rounded=0;" vertex="1" parent="dNxyNK7c78bLwvsdeMH5-22">
          <mxGeometry x="40" width="155" height="30" as="geometry" />
        </mxCell>
        <mxCell id="6_mQqwPu-ReOJ2Goo2wV-8" value="Hrk_task_test99(results,args).process&lt;span style=&quot;background-color: initial;&quot;&gt;()&lt;/span&gt;" style="rounded=0;whiteSpace=wrap;html=1;" vertex="1" parent="dNxyNK7c78bLwvsdeMH5-22">
          <mxGeometry x="62" y="55" width="230" height="50" as="geometry" />
        </mxCell>
        <mxCell id="6_mQqwPu-ReOJ2Goo2wV-19" value="" style="edgeStyle=orthogonalEdgeStyle;rounded=0;orthogonalLoop=1;jettySize=auto;html=1;" edge="1" parent="dNxyNK7c78bLwvsdeMH5-22" source="6_mQqwPu-ReOJ2Goo2wV-13" target="6_mQqwPu-ReOJ2Goo2wV-8">
          <mxGeometry relative="1" as="geometry" />
        </mxCell>
        <mxCell id="6_mQqwPu-ReOJ2Goo2wV-13" value="Hrk_task_test99(results,args).run()" style="rounded=0;whiteSpace=wrap;html=1;" vertex="1" parent="dNxyNK7c78bLwvsdeMH5-22">
          <mxGeometry x="377" y="55" width="200" height="50" as="geometry" />
        </mxCell>
        <mxCell id="6_mQqwPu-ReOJ2Goo2wV-17" style="edgeStyle=orthogonalEdgeStyle;rounded=0;orthogonalLoop=1;jettySize=auto;html=1;exitX=0;exitY=0.5;exitDx=0;exitDy=0;" edge="1" parent="dNxyNK7c78bLwvsdeMH5-22">
          <mxGeometry relative="1" as="geometry">
            <mxPoint x="367.5" y="79.5" as="sourcePoint" />
            <mxPoint x="290" y="80" as="targetPoint" />
          </mxGeometry>
        </mxCell>
        <mxCell id="6_mQqwPu-ReOJ2Goo2wV-18" value="invoke" style="edgeLabel;html=1;align=center;verticalAlign=middle;resizable=0;points=[];" vertex="1" connectable="0" parent="6_mQqwPu-ReOJ2Goo2wV-17">
          <mxGeometry x="-0.3793" relative="1" as="geometry">
            <mxPoint as="offset" />
          </mxGeometry>
        </mxCell>
        <mxCell id="6_mQqwPu-ReOJ2Goo2wV-4" value="" style="edgeStyle=orthogonalEdgeStyle;rounded=0;orthogonalLoop=1;jettySize=auto;html=1;exitX=0.5;exitY=1;exitDx=0;exitDy=0;entryX=0.5;entryY=0;entryDx=0;entryDy=0;" edge="1" parent="dNxyNK7c78bLwvsdeMH5-19" source="dNxyNK7c78bLwvsdeMH5-30" target="6_mQqwPu-ReOJ2Goo2wV-3">
          <mxGeometry relative="1" as="geometry">
            <mxPoint x="305" y="129" as="sourcePoint" />
            <mxPoint x="384" y="129" as="targetPoint" />
          </mxGeometry>
        </mxCell>
        <mxCell id="6_mQqwPu-ReOJ2Goo2wV-5" value="invoke" style="edgeLabel;html=1;align=center;verticalAlign=middle;resizable=0;points=[];" vertex="1" connectable="0" parent="6_mQqwPu-ReOJ2Goo2wV-4">
          <mxGeometry x="0.0308" y="2" relative="1" as="geometry">
            <mxPoint y="1" as="offset" />
          </mxGeometry>
        </mxCell>
        <mxCell id="6_mQqwPu-ReOJ2Goo2wV-14" style="edgeStyle=orthogonalEdgeStyle;rounded=0;orthogonalLoop=1;jettySize=auto;html=1;entryX=0.469;entryY=0.056;entryDx=0;entryDy=0;entryPerimeter=0;" edge="1" parent="dNxyNK7c78bLwvsdeMH5-19" source="6_mQqwPu-ReOJ2Goo2wV-3" target="6_mQqwPu-ReOJ2Goo2wV-13">
          <mxGeometry relative="1" as="geometry" />
        </mxCell>
        <mxCell id="6_mQqwPu-ReOJ2Goo2wV-15" value="invoke" style="edgeLabel;html=1;align=center;verticalAlign=middle;resizable=0;points=[];" vertex="1" connectable="0" parent="6_mQqwPu-ReOJ2Goo2wV-14">
          <mxGeometry x="-0.3793" relative="1" as="geometry">
            <mxPoint as="offset" />
          </mxGeometry>
        </mxCell>
        <mxCell id="dNxyNK7c78bLwvsdeMH5-32" value="" style="ellipse;whiteSpace=wrap;html=1;" parent="1" vertex="1">
          <mxGeometry x="520" y="-60" width="40" height="40" as="geometry" />
        </mxCell>
      </root>
    </mxGraphModel>
  </diagram>
</mxfile>
